<svg xmlns="http://www.w3.org/2000/svg" width="295" height="66" viewBox="0 0 295 66" fill="none">
<path d="M0.518005 29.273H5.954V36.164H6.009C6.54424 35.5148 7.22774 35.0038 8.00187 34.6742C8.77601 34.3446 9.61806 34.2059 10.457 34.27C11.1053 34.2264 11.7555 34.321 12.3645 34.5475C12.9735 34.7739 13.5274 35.1272 13.9897 35.5838C14.452 36.0404 14.812 36.5899 15.046 37.1961C15.28 37.8023 15.3826 38.4512 15.347 39.1V48.875H9.91101V41.409C9.91101 39.761 9.71901 38.609 8.12601 38.609C7.19301 38.609 5.957 39.076 5.957 41.355V48.879H0.518005V29.273Z" fill="#058D96"/>
<path d="M17.726 29.273H23.163V36.164H23.218C23.7533 35.5149 24.4368 35.0039 25.2109 34.6743C25.985 34.3447 26.8271 34.206 27.666 34.27C28.3142 34.2267 28.9642 34.3215 29.573 34.5481C30.1818 34.7747 30.7356 35.128 31.1977 35.5845C31.6598 36.0411 32.0198 36.5905 32.2538 37.1966C32.4877 37.8026 32.5904 38.4513 32.555 39.1V48.875H27.117V41.409C27.117 39.761 26.926 38.609 25.332 38.609C24.399 38.609 23.163 39.076 23.163 41.355V48.879H17.726V29.273Z" fill="#00A450"/>
<path d="M34.92 34.627H40.168V36.521H40.223C40.7321 35.767 41.4319 35.1613 42.2512 34.7658C43.0704 34.3702 43.9799 34.1988 44.887 34.269C45.6709 34.2475 46.4454 34.4441 47.1242 34.837C47.8029 35.2299 48.3592 35.8035 48.731 36.494C49.2879 35.7436 50.0255 35.1461 50.8751 34.7571C51.7248 34.3681 52.659 34.2002 53.591 34.269C54.2428 34.2106 54.8995 34.295 55.5153 34.5165C56.1312 34.7379 56.6913 35.091 57.1566 35.5511C57.622 36.0112 57.9814 36.5673 58.2098 37.1806C58.4382 37.7939 58.53 38.4496 58.479 39.102V48.877H53.042V41.163C53.042 39.817 52.906 38.609 51.258 38.609C49.885 38.609 49.418 39.68 49.418 41.163V48.878H43.981V41.163C43.981 39.817 43.843 38.609 42.196 38.609C40.823 38.609 40.356 39.68 40.356 41.163V48.878H34.92V34.627Z" fill="#52B448"/>
<path d="M66.23 34.628H60.794V48.879H66.23V34.628Z" fill="#8AC341"/>
<path d="M66.372 32.881C66.4942 32.4704 66.5266 32.0383 66.4669 31.614C66.4073 31.1898 66.257 30.7834 66.0264 30.4224C65.7957 30.0613 65.49 29.7542 65.1301 29.5218C64.7702 29.2895 64.3645 29.1373 63.9405 29.0756C63.5165 29.014 63.0843 29.0443 62.6731 29.1646C62.2619 29.2849 61.8814 29.4922 61.5575 29.7726C61.2336 30.053 60.9738 30.3998 60.7958 30.7895C60.6178 31.1792 60.5258 31.6026 60.526 32.031C60.526 32.319 60.5685 32.6054 60.652 32.881H66.372Z" fill="#8AC341"/>
<path d="M76.762 26.214V65.861" stroke="black" stroke-width="0.5" stroke-miterlimit="10"/>
<path d="M259.708 32.836C259.833 32.4227 259.868 31.9872 259.809 31.5594C259.751 31.1315 259.601 30.7213 259.369 30.3568C259.137 29.9923 258.83 29.6821 258.467 29.4475C258.105 29.2128 257.696 29.0592 257.268 28.9971C256.841 28.935 256.405 28.9659 255.991 29.0877C255.577 29.2095 255.193 29.4193 254.868 29.7028C254.542 29.9863 254.281 30.3368 254.103 30.7303C253.925 31.1239 253.835 31.5512 253.837 31.983C253.837 32.272 253.879 32.5594 253.963 32.836H259.708Z" fill="black"/>
<path d="M114.842 32.888C114.925 32.611 114.967 32.3232 114.967 32.034C114.932 31.2623 114.602 30.5337 114.043 29.9999C113.485 29.4661 112.742 29.1681 111.97 29.1681C111.198 29.1681 110.455 29.4661 109.897 29.9999C109.338 30.5337 109.008 31.2623 108.973 32.034C108.973 32.3233 109.015 32.611 109.099 32.888H114.842Z" fill="black"/>
<path d="M88.466 48.82V29.113H97.882C102.315 29.113 105.846 30.154 105.846 34.067C105.815 34.9426 105.563 35.7961 105.113 36.548C104.664 37.2999 104.031 37.9257 103.274 38.367C104.259 38.6244 105.125 39.215 105.724 40.0385C106.323 40.862 106.618 41.8675 106.559 42.884C106.559 47.29 103.192 48.822 98.074 48.822L88.466 48.82ZM94.925 33.712V36.992H97.607C98.894 36.992 99.824 36.416 99.824 35.267C99.824 33.735 98.565 33.708 97.197 33.708L94.925 33.712ZM94.925 40.581V44.221H97.745C99.332 44.221 100.537 43.892 100.537 42.415C100.537 40.69 99.037 40.581 96.979 40.581H94.925Z" fill="black"/>
<path d="M109.215 48.819V34.48H114.908V48.819H109.215Z" fill="black"/>
<path d="M125.447 34.067C130.51 34.067 133.63 37.05 133.63 41.512C133.63 46.767 130.072 49.229 125.474 49.229C120.876 49.229 117.316 46.712 117.316 41.812C117.317 36.832 120.6 34.067 125.447 34.067ZM123.011 41.512C123.011 44.221 124.023 45.397 125.474 45.397C127.006 45.397 127.936 44.221 127.936 41.512C127.936 39.405 127.006 37.812 125.527 37.899C123.585 37.899 123.011 39.897 123.011 41.512Z" fill="black"/>
<path d="M136.428 48.82V29.113H142.887V48.82H136.428Z" fill="black"/>
<path d="M146.032 34.477H151.232V36.722C151.743 35.9 152.457 35.2237 153.306 34.7586C154.155 34.2934 155.109 34.0552 156.077 34.067C159.854 34.067 161.633 36.283 161.633 40.225V48.819H155.94V41.238C155.94 39.814 155.557 38.557 153.94 38.557C152.188 38.557 151.722 39.677 151.722 41.513V48.82H146.03L146.032 34.477Z" fill="black"/>
<path d="M173.486 48.819C166.013 49.229 165.109 48.709 165.109 43.756V37.762H163.084V34.477H165.191V30.016H170.802V34.477H173.539V37.762H170.802V42.962C170.802 44.276 170.993 44.741 172.581 44.741H173.481L173.486 48.819Z" fill="black"/>
<path d="M181.126 42.934C181.118 43.3064 181.186 43.6765 181.325 44.0221C181.464 44.3676 181.671 44.6816 181.934 44.945C182.198 45.2084 182.512 45.4158 182.857 45.5549C183.203 45.6939 183.573 45.7616 183.945 45.754C184.385 45.7739 184.821 45.6654 185.2 45.4419C185.579 45.2184 185.885 44.8894 186.081 44.495H191.526C190.541 48.053 186.926 49.23 183.588 49.23C178.988 49.23 175.432 46.603 175.432 41.786C175.432 37.079 178.962 34.068 183.561 34.068C188.87 34.068 192.073 37.735 191.991 42.935L181.126 42.934ZM186.3 40.034C186.277 39.376 186.004 38.7515 185.536 38.2885C185.068 37.8256 184.44 37.5592 183.782 37.544C183.437 37.5004 183.087 37.5334 182.756 37.6407C182.425 37.748 182.122 37.9269 181.869 38.1647C181.615 38.4025 181.417 38.6933 181.289 39.0164C181.16 39.3395 181.105 39.687 181.126 40.034H186.3Z" fill="black"/>
<path d="M193.987 34.477H199.161V37.377H199.216C200.009 35.132 201.406 34.065 203.622 34.065C203.87 34.0788 204.117 34.1062 204.362 34.147V39.84C203.974 39.7574 203.581 39.7019 203.185 39.674C200.858 39.674 199.685 40.774 199.685 43.862V48.816H193.991L193.987 34.477Z" fill="black"/>
<path d="M215.912 48.819L215.638 47.287C214.921 47.9639 214.072 48.4857 213.144 48.8198C212.217 49.154 211.23 49.2932 210.246 49.229C207.536 49.229 205.128 47.889 205.128 44.905C205.128 38.391 215.337 41.346 215.337 38.664C215.337 37.624 214.077 37.487 213.477 37.487C212.682 37.487 211.615 37.651 211.477 38.887H206.003C206.003 35.849 208.164 34.07 213.831 34.07C220.618 34.07 221.031 36.588 221.031 40.009V46.715C220.972 47.062 221.013 47.4185 221.149 47.7431C221.285 48.0678 221.51 48.3472 221.798 48.549V48.823L215.912 48.819ZM215.337 42.469C213.477 43.369 211.012 42.933 211.012 44.795C211.012 45.507 211.697 45.995 212.819 45.995C214.817 46.001 215.473 44.44 215.337 42.47V42.469Z" fill="black"/>
<path d="M233.567 39.952C233.564 39.4008 233.35 38.8719 232.967 38.475C232.776 38.2793 232.546 38.1267 232.291 38.0276C232.037 37.9284 231.764 37.8849 231.491 37.9C229.354 37.9 228.999 40.117 228.999 41.813C228.999 43.975 229.821 45.398 231.491 45.398C231.777 45.4059 232.062 45.3566 232.329 45.2532C232.596 45.1497 232.84 44.9942 233.046 44.7955C233.253 44.5969 233.417 44.3591 233.531 44.0962C233.644 43.8333 233.704 43.5504 233.707 43.264H239.454C239.389 44.1884 239.114 45.0857 238.649 45.8875C238.185 46.6892 237.543 47.3742 236.773 47.89C235.177 48.8335 233.344 49.2986 231.491 49.23C226.864 49.23 223.306 46.63 223.306 41.786C223.306 36.886 226.754 34.068 231.491 34.068C235.322 34.068 238.934 35.71 239.344 39.953L233.567 39.952Z" fill="black"/>
<path d="M251.194 48.819C243.722 49.229 242.82 48.709 242.82 43.756V37.762H240.793V34.477H242.901V30.016H248.513V34.477H251.25V37.762H248.513V42.962C248.513 44.276 248.704 44.741 250.293 44.741H251.193L251.194 48.819Z" fill="black"/>
<path d="M253.988 48.819V34.48H259.68V48.819H253.988Z" fill="black"/>
<path d="M261.406 34.48H267.099L269.616 43.54L272.107 34.48H277.581L272.736 48.822H266.385L261.406 34.48Z" fill="black"/>
<path d="M284.124 42.934C284.116 43.3065 284.184 43.6766 284.323 44.0223C284.462 44.3679 284.669 44.6819 284.933 44.9453C285.196 45.2088 285.51 45.4162 285.856 45.5552C286.201 45.6941 286.572 45.7618 286.944 45.754C287.384 45.7737 287.819 45.6651 288.198 45.4416C288.578 45.2181 288.883 44.8892 289.079 44.495H294.526C293.541 48.053 289.926 49.23 286.589 49.23C281.989 49.23 278.432 46.603 278.432 41.786C278.432 37.079 281.962 34.068 286.561 34.068C291.871 34.068 295.073 37.735 294.991 42.935L284.124 42.934ZM289.297 40.034C289.275 39.3761 289.002 38.7516 288.534 38.2886C288.066 37.8256 287.438 37.5592 286.78 37.544C286.435 37.5004 286.085 37.5334 285.754 37.6407C285.423 37.748 285.12 37.9269 284.867 38.1647C284.613 38.4025 284.415 38.6933 284.287 39.0164C284.158 39.3395 284.103 39.687 284.124 40.034H289.297Z" fill="black"/>
<path d="M253.639 0.734001C253.18 0.515001 253.063 0.652001 253.063 0.981001C253.063 1.31 253.309 13.981 253.309 13.981C253.309 13.981 253.314 14.75 253.804 14.228L256.273 11.595C256.273 11.595 256.683 11.018 257.013 11.512C257.343 12.006 261.213 17.191 261.213 17.191C260.993 17.5233 260.681 17.7849 260.316 17.9445C259.951 18.1042 259.547 18.155 259.154 18.091C259.242 17.6703 259.299 17.2439 259.327 16.815C259.327 16.392 258.982 15.697 258.268 15.862C257.554 16.027 257.72 16.571 258.108 17.133C258.496 17.695 258.268 17.875 258.055 17.928C257.842 17.981 257.599 17.591 257.512 17.228C257.425 16.865 257.128 15.775 256.435 16.351C255.742 16.927 256.586 17.251 256.81 17.737C257.034 18.223 257.21 18.587 256.783 18.537C256.356 18.487 255.899 17.68 255.476 17.627C255.053 17.574 253.876 18.261 256.254 19.066C256.525 19.158 256.923 19.466 256.5 19.674C256.077 19.882 255.969 19.568 255.6 19.674C255.231 19.78 255.016 20.098 255.229 20.416C255.442 20.734 256.24 20.722 256.663 20.516C257.016 20.3909 257.331 20.1782 257.579 19.898C257.762 19.624 257.843 19.527 258.268 19.686C258.901 20.0404 259.608 20.2402 260.333 20.269C261.213 20.1975 262.032 19.7861 262.614 19.122C262.88 18.739 263.142 18.414 263.46 18.838C263.778 19.262 267.485 22.812 275.804 21.538C275.958 21.5067 276.117 21.5087 276.271 21.5438C276.424 21.5789 276.568 21.6464 276.693 21.7416C276.818 21.8368 276.922 21.9576 276.997 22.096C277.071 22.2343 277.116 22.3871 277.127 22.544C277.207 23.2785 277.434 23.9893 277.795 24.634C278.156 25.2786 278.643 25.8439 279.227 26.296C279.803 26.716 279.736 27.018 279.314 27.707C279.158 28.0595 279.117 28.4523 279.197 28.8295C279.277 29.2066 279.475 29.5488 279.761 29.807C280.35 29.937 280.334 28.954 280.28 28.689C280.226 28.424 280.086 27.669 280.521 27.633C280.956 27.597 280.945 28.216 280.945 28.746C280.945 29.276 280.839 29.753 281.316 29.965C281.793 30.177 282.27 30.204 282.402 29.526C282.534 28.848 282.236 28.747 282.02 28.435C281.804 28.123 281.533 27.788 281.956 27.501C282.379 27.214 282.445 27.966 283.064 28.375C283.683 28.784 284.21 28.065 283.753 27.475C283.296 26.885 282.587 26.786 282.587 26.468C282.587 26.15 282.806 26.252 283.439 26.182C283.823 26.138 284.279 26.023 284.127 25.419C284.013 24.771 283.505 24.934 282.195 25.494C281.019 25.999 280.627 24.456 280.627 23.978C280.627 23.5 280.572 23.023 280.567 21.888C280.562 20.753 280.777 20.737 281.476 20.748C284.364 20.791 286.828 21.043 292.746 27.791C293.167 28.272 293.331 28.281 293.184 27.264C292.999 26.004 290.878 18.18 284.337 15.927C284.037 15.827 283.383 15.768 284.019 14.127C284.655 12.486 283.17 10.048 283.119 9.889C283.068 9.73 283.013 9.518 283.544 9.253C283.827 9.17764 284.069 8.99318 284.216 8.73999C284.364 8.4868 284.405 8.18549 284.331 7.902C284.321 7.76649 284.271 7.63684 284.189 7.5285C284.107 7.42015 283.996 7.33768 283.868 7.29089C283.741 7.24411 283.602 7.23498 283.47 7.26461C283.337 7.29424 283.216 7.36137 283.12 7.458C282.72 7.791 282.938 8.658 282.589 8.617C282.24 8.576 282.403 8.14 282.474 7.468C282.545 6.796 281.835 6.599 281.352 6.916C281.161 7.06662 281.034 7.28516 281 7.52627C280.965 7.76739 281.025 8.01259 281.166 8.211C281.377 8.582 281.831 8.798 281.478 9.146C281.125 9.494 280.694 8.815 280.578 8.497C280.366 7.912 279.81 7.253 279.044 8.113C278.433 8.799 279.339 9.013 279.944 9.363C280.549 9.713 280.524 10.263 280.1 10.263C279.676 10.263 279.167 9.439 278.824 10.263C278.78 10.3836 278.767 10.5135 278.787 10.6404C278.806 10.7673 278.858 10.8873 278.936 10.9889C279.015 11.0906 279.118 11.1707 279.235 11.2218C279.353 11.2729 279.482 11.2932 279.61 11.281C280.139 11.175 280.683 10.842 281.21 11.001C281.737 11.16 281.739 11.637 281.58 12.008C281.421 12.379 280.145 14.76 280.145 14.76C280.145 14.76 280.092 14.972 279.139 15.025C278.186 15.078 273.417 15.502 270.874 14.708C268.331 13.914 268.331 13.754 268.808 13.17C269.285 12.586 269.708 11.899 270.291 12.058C270.911 12.3001 271.436 12.7379 271.785 13.305C272.065 13.764 272.705 13.979 272.978 13.534C273.229 13.125 272.513 12.827 272.305 12.64C272.097 12.453 272.04 12.163 272.516 12.163C272.992 12.163 273.475 12.492 273.844 12.439C273.938 12.4322 274.028 12.3999 274.105 12.3456C274.182 12.2913 274.243 12.217 274.28 12.1307C274.318 12.0445 274.332 11.9496 274.319 11.8562C274.307 11.7629 274.27 11.6746 274.211 11.601C273.97 11.186 273.111 11.252 272.727 11.157C272.343 11.062 272.727 10.696 273.84 10.574C274.805 10.474 274.301 8.674 273.321 9.519C272.927 9.86 272.834 9.991 272.516 10.097C272.198 10.203 271.941 9.897 272.205 9.581C272.469 9.265 273.138 9.072 273.005 8.703C272.972 8.61167 272.917 8.52978 272.845 8.46437C272.773 8.39896 272.686 8.35198 272.592 8.32749C272.498 8.30299 272.4 8.30171 272.305 8.32375C272.21 8.34578 272.123 8.39048 272.049 8.454C271.539 8.837 271.176 8.978 271.124 9.667C271.095 10.028 270.914 10.304 270.119 10.251C269.324 10.198 268.94 10.073 268.28 10.733C267.909 11.105 267.303 11.582 267.063 11.792C266.823 12.002 266.321 11.952 265.95 11.474C265.579 10.996 262.136 7.974 262.136 7.974C262.085 7.91948 262.048 7.85352 262.029 7.78172C262.009 7.70993 262.007 7.63441 262.022 7.56159C262.038 7.48876 262.071 7.42078 262.118 7.3634C262.166 7.30602 262.226 7.26095 262.295 7.232C262.826 6.914 265.029 5.975 265.42 5.802C266.081 5.51 266.176 5.351 265.632 5.166C264.723 4.86 254.101 0.952001 253.639 0.734001Z" fill="url(#paint0_linear_19_39)"/>
<path d="M253.746 1.353C253.746 1.353 260.046 14.279 268.262 16.982C270.826 17.8 273.529 18.0886 276.208 17.83C273.553 17.7873 270.93 17.2484 268.474 16.241C262.882 13.869 258.302 6.016 258.302 6.016C258.508 6.10682 258.736 6.14 258.959 6.112C259.183 6.084 259.395 5.99588 259.573 5.857C259.762 5.74434 259.925 5.59403 260.053 5.41545C260.181 5.23687 260.271 5.03383 260.317 4.819L259.696 4.519C259.696 4.519 259.858 4.878 259.314 5.219C259.192 5.31153 259.05 5.37343 258.899 5.39949C258.748 5.42555 258.593 5.41501 258.447 5.36876C258.301 5.3225 258.169 5.24189 258.06 5.13369C257.952 5.0255 257.871 4.89288 257.825 4.747C257.766 4.61216 257.736 4.46647 257.736 4.31924C257.736 4.172 257.767 4.02645 257.827 3.89189C257.887 3.75732 257.974 3.63669 258.083 3.53771C258.192 3.43872 258.32 3.36355 258.46 3.317C258.46 3.317 255.438 2.199 253.746 1.353Z" fill="white"/>
<path d="M272.606 19.1C274.785 19.3757 276.976 19.5359 279.172 19.58C281.332 19.4209 283.5 19.7278 285.531 20.48C290.131 22.23 293.453 28.144 292.976 27.297C292.499 26.45 291.094 22.546 287.915 20.639C284.736 18.732 283.306 18.573 279.491 18.68C275.676 18.787 272.606 19.1 272.606 19.1Z" fill="white"/>
<path d="M254.343 6.858C254.343 6.858 255.311 6.781 255.554 7.48C255.654 7.773 255.773 8.341 254.978 8.394C254.978 8.394 253.971 8.341 254.395 8.712C254.62 8.86829 254.886 8.95248 255.16 8.95338C255.433 8.95427 255.701 8.87182 255.926 8.717C256.035 8.64288 256.127 8.54614 256.196 8.43333C256.265 8.32052 256.308 8.19428 256.324 8.06314C256.34 7.93201 256.327 7.79905 256.287 7.67325C256.247 7.54745 256.18 7.43176 256.091 7.334C255.614 6.699 254.872 5.904 254.343 6.858Z" fill="white"/>
<defs>
<linearGradient id="paint0_linear_19_39" x1="253.063" y1="15.3628" x2="293.237" y2="15.3628" gradientUnits="userSpaceOnUse">
<stop stop-color="#058D96"/>
<stop offset="1" stop-color="#8AC341"/>
</linearGradient>
</defs>
</svg>