<?xml version="1.0" encoding="UTF-8"?>
<svg id="Layer_1" xmlns="http://www.w3.org/2000/svg" version="1.1" viewBox="0 0 64 64">
  <!-- Generator: Adobe Illustrator 29.8.5, SVG Export Plug-In . SVG Version: 2.1.1 Build 2)  -->
  <defs>
    <style>
      .st0 {
        fill: none;
        stroke: #12182f;
        stroke-miterlimit: 10;
        stroke-width: 1.5px;
      }

      .st1 {
        fill: #8ac341;
      }
    </style>
  </defs>
  <path class="st0" d="M52.3,15.3H13.9c-1.7,0-3,1.3-3,3v31c0,1.7,1.3,3,3,3h38.4c1.7,0,3-1.3,3-3v-31c0-1.7-1.3-3-3-3Z"/>
  <path class="st1" d="M47.5,30h-14.2c-1.4,0-2.5,1.1-2.5,2.5v11.8c0,1.4,1.1,2.5,2.5,2.5h14.2c1.4,0,2.5-1.1,2.5-2.5v-11.8c0-1.4-1.1-2.5-2.5-2.5Z"/>
  <path class="st0" d="M10.9,25.3h44.4"/>
  <path class="st0" d="M10.9,32h15.2"/>
  <path class="st0" d="M10.9,38.7h15.2"/>
  <path class="st0" d="M10.9,45.3h15.2"/>
  <path class="st0" d="M26.1,25.3v27"/>
</svg>